<?xml version="1.0" encoding="utf-8"?>
<!-- Svg Vector Icons : http://www.onlinewebfonts.com/icon -->
<!DOCTYPE svg PUBLIC "-//W3C//DTD SVG 1.1//EN" "http://www.w3.org/Graphics/SVG/1.1/DTD/svg11.dtd">
<svg version="1.1" xmlns="http://www.w3.org/2000/svg" xmlns:xlink="http://www.w3.org/1999/xlink" x="0px" y="0px" viewBox="0 0 256 256" enable-background="new 0 0 256 256" xml:space="preserve">
<metadata> Svg Vector Icons : http://www.onlinewebfonts.com/icon </metadata>
<g><g><g><path fill="#000000" d="M13.7,24.7c-0.9,0.4-2,1.4-2.5,2.1l-1,1.3L10,127.4c-0.1,93.9,0,99.5,0.7,100.9c0.5,0.9,1.4,2,2.1,2.5c1.3,1,1.8,1,31,1.1c33.2,0.1,31.8,0.2,34-3.1l1.1-1.6V128V28.6l-1.1-1.6c-2.2-3.3-0.9-3.2-33.4-3.2C17.6,23.9,15.1,23.9,13.7,24.7z M65.5,128v90.7H44.4H23.4V128V37.3h21.1h21.1V128z"/><path fill="#000000" d="M98.1,79.9c-2.1,0.6-4.2,3.2-4.6,5.6c-0.1,1.1-0.2,33.4-0.1,71.9c0.1,67.9,0.2,69.9,1,71.4c0.5,0.8,1.7,1.9,2.6,2.4c1.7,1,2.2,1,31,1c28.8,0,29.3,0,31-1c0.9-0.5,2.1-1.6,2.6-2.4c0.8-1.4,0.9-3.4,0.9-73.1c0-71.6,0-71.6-1-72.9c-0.5-0.7-1.5-1.7-2.2-2.2c-1.3-1-1.8-1-30.5-1.1C111.9,79.5,98.9,79.6,98.1,79.9z M149.3,155.8v62.9H128h-21.3v-62.9V92.8H128h21.3V155.8z"/><path fill="#000000" d="M180,136.3c-0.7,0.5-1.8,1.6-2.2,2.4c-0.8,1.4-0.8,4.5-0.8,45.1v43.6l1.1,1.6c2.2,3.3,0.8,3.2,34,3.1c29.2-0.1,29.7-0.1,31-1.1c0.7-0.5,1.7-1.7,2.1-2.5c0.8-1.5,0.8-4.6,0.8-44.8c0-47.4,0.2-44.5-2.8-47l-1.5-1.2h-30.1C182.4,135.4,181.4,135.5,180,136.3z M232.6,183.8v34.9h-21.1h-21.1v-34.9v-34.9h21.1h21.1V183.8z"/></g></g></g>
</svg>