<?xml version="1.0" encoding="utf-8"?>
<!-- Svg Vector Icons : http://www.onlinewebfonts.com/icon -->
<!DOCTYPE svg PUBLIC "-//W3C//DTD SVG 1.1//EN" "http://www.w3.org/Graphics/SVG/1.1/DTD/svg11.dtd">
<svg version="1.1" xmlns="http://www.w3.org/2000/svg" xmlns:xlink="http://www.w3.org/1999/xlink" x="0px" y="0px" viewBox="0 0 256 256" enable-background="new 0 0 256 256" xml:space="preserve">
<metadata> Svg Vector Icons : http://www.onlinewebfonts.com/icon </metadata>
<g> <path fill="#000000" d="M237.6,237.3H35.3C21.3,237.3,10,226,10,212V27.1c0-4.7,3.8-8.4,8.4-8.4s8.4,3.8,8.4,8.4V212 c0,4.7,3.8,8.4,8.4,8.4h202.3c4.7,0,8.4,3.8,8.4,8.4S242.2,237.3,237.6,237.3z"/> <path fill="#000000" d="M118.5,195.2c-4.7,0-8.4-3.8-8.4-8.4V27.1c0-4.7,3.8-8.4,8.4-8.4c4.7,0,8.4,3.8,8.4,8.4v159.6 C126.9,191.4,123.2,195.2,118.5,195.2z M215.3,195.2c-4.7,0-8.4-3.8-8.4-8.4V27.1c0-4.7,3.8-8.4,8.4-8.4s8.4,3.8,8.4,8.4v159.6 C223.8,191.4,220,195.2,215.3,195.2z M70.3,195.2c-4.7,0-8.4-3.8-8.4-8.4V82.9c0-4.7,3.8-8.4,8.4-8.4s8.4,3.8,8.4,8.4v103.8 C78.7,191.4,75,195.2,70.3,195.2z M167.1,195.2c-4.7,0-8.4-3.8-8.4-8.4V82.9c0-4.7,3.8-8.4,8.4-8.4c4.7,0,8.4,3.8,8.4,8.4v103.8 C175.6,191.4,171.8,195.2,167.1,195.2z"/></g>
</svg>