<?xml version="1.0" encoding="utf-8"?>
<!-- Svg Vector Icons : http://www.onlinewebfonts.com/icon -->
<!DOCTYPE svg PUBLIC "-//W3C//DTD SVG 1.1//EN" "http://www.w3.org/Graphics/SVG/1.1/DTD/svg11.dtd">
<svg version="1.1" xmlns="http://www.w3.org/2000/svg" xmlns:xlink="http://www.w3.org/1999/xlink" x="0px" y="0px" viewBox="0 0 256 256" enable-background="new 0 0 256 256" xml:space="preserve">
<metadata> Svg Vector Icons : http://www.onlinewebfonts.com/icon </metadata>
<g><g><g><path fill="#000000" d="M113,10.8C92.9,13.5,73.4,22,57.2,35C53,38.3,42.4,48.8,42.4,49.5c0,0.3,3.7,3.6,8.2,7.4l8.2,6.9l4.5-4.6c13-13.2,28.3-21.4,47.2-25.6c4.8-1,7-1.2,17.4-1.2c10.5,0,12.6,0.2,17.6,1.2c8.6,1.8,14.6,4,22.8,8c9.2,4.6,15.8,9.2,23.1,16.4l5.7,5.6l8-6.8c4.4-3.7,8.2-7.1,8.3-7.3c0.3-1-12-12.7-17.9-17.1c-16.2-12-33.5-19.1-53.6-21.7C134.4,9.7,120.8,9.8,113,10.8z"/><path fill="#000000" d="M119.4,55.4c-11.8,1.6-23,6.3-32.4,13.5C82.9,72,74.7,80.4,74.7,81.5c0.1,0.3,3.9,3.5,8.6,7l8.6,6.4l2.8-3.1c9-10.1,22.4-15.4,36.2-14.6c11.8,0.7,21.8,5.3,29.9,13.8l3.6,3.8l8.4-6.3c4.6-3.5,8.6-6.5,8.8-6.7c0.6-0.6-8.6-10.1-13.4-13.7c-7.3-5.5-17.6-10.1-26.9-11.9C136.2,55.1,124.1,54.7,119.4,55.4z"/><path fill="#000000" d="M97.4,112.2C85.2,115.5,76,124.8,72.8,137c-1.2,4.6-1.2,78.1,0.1,83.2c1.4,6.2,4.1,10.9,8.9,15.6c4.7,4.7,7.5,6.4,13.5,8.6l4,1.4l27,0.2c30.6,0.2,31.6,0.1,39.3-3.6c6-3,12-8.9,14.9-14.7c3.7-7.5,3.6-6.6,3.5-50.3c-0.2-38.9-0.2-39.2-1.3-42.6c-3.5-10.2-11.6-18.3-21.8-21.8c-3.4-1.1-4.1-1.2-32-1.3C104.9,111.4,99.8,111.5,97.4,112.2z M156.7,135.2c1.2,0.7,2.7,2.3,3.4,3.4l1.4,2l0.2,37.4c0.1,36,0.1,37.4-0.9,39.4c-1.3,2.5-3.5,4.6-6,5.6c-3,1.3-50.7,1.3-53.7,0c-2.5-1-4.6-3.1-6-5.6c-1-1.9-1-3.6-1-38.7s0.1-36.8,1-38.7c1.2-2.2,3.3-4.3,5.6-5.6c1.4-0.7,4.6-0.8,27.7-0.7l26.1,0.1L156.7,135.2z"/><path fill="#000000" d="M125.4,176.3c-10.9,2.3-14.8,15.4-7,23.5c2.1,2.1,6.5,4.1,9.3,4.1c7.6,0,14.1-6.4,14.1-14C141.7,181.2,133.6,174.5,125.4,176.3z"/></g></g></g>
</svg>