<?xml version="1.0" encoding="utf-8"?>
<!-- Svg Vector Icons : http://www.onlinewebfonts.com/icon -->
<!DOCTYPE svg PUBLIC "-//W3C//DTD SVG 1.1//EN" "http://www.w3.org/Graphics/SVG/1.1/DTD/svg11.dtd">
<svg version="1.1" xmlns="http://www.w3.org/2000/svg" xmlns:xlink="http://www.w3.org/1999/xlink" x="0px" y="0px" viewBox="0 0 256 256" enable-background="new 0 0 256 256" xml:space="preserve">
<metadata> Svg Vector Icons : http://www.onlinewebfonts.com/icon </metadata>
<g><g><g><path fill="#000000" d="M41.7,22.8c-12.2,1.8-22.5,9.4-28.2,20.9C9.9,51,10,47.5,10,128.1c0,71.3,0.1,73.6,1.2,78c1.7,6.7,4.3,11,9.6,16.4c5.1,5.1,8.2,7.1,14.9,9.4l4.4,1.6l86.1,0.2c96.3,0.2,90.5,0.4,99.5-4c6.8-3.4,12.9-9.4,16.3-16.3c4.4-9,4.2-4.6,4-87.3l-0.2-73.8l-1.6-4.3c-5-13.8-16-23-30-25.1C209.4,22.1,46.8,22,41.7,22.8z M215.8,36c1.7,0.5,4.3,1.6,5.5,2.3c3.1,1.8,7.9,6.9,9.6,10.1c1,2,2.9,8.8,2.9,10.7c0,0.3-47.6,0.5-105.8,0.5H22.1l0.4-3c1.2-9.3,7.6-17.1,16.7-20.3c3.1-1.1,5.2-1.1,88.4-1.2C204.1,35,212.9,35.2,215.8,36z M233.8,134.5c0,37.2-0.2,63.6-0.6,65.7c-1.7,10.8-10.2,19.1-21.1,20.8c-2.3,0.3-34.7,0.5-86.7,0.4l-83.1-0.2L39,220c-6.7-2.5-12.5-8.1-15-14.6l-1.4-3.4l-0.2-64.9l-0.1-64.8H128h105.8V134.5z"/><path fill="#000000" d="M63.6,98.9l-4.4,4.4l21.9,21.9l21.9,21.9l-21.7,21.7l-21.7,21.7l4.4,4.4l4.4,4.4l25.9-25.9c14.3-14.3,25.9-26.2,25.9-26.5c0-0.6-51.3-52.2-51.9-52.2C68.1,94.5,66,96.5,63.6,98.9z"/><path fill="#000000" d="M134.1,190.4v6.1h31.2h31.2v-6.1v-6.1h-31.2h-31.2V190.4z"/></g></g></g>
</svg>