<?xml version="1.0" encoding="utf-8"?>
<!-- Svg Vector Icons : http://www.onlinewebfonts.com/icon -->
<!DOCTYPE svg PUBLIC "-//W3C//DTD SVG 1.1//EN" "http://www.w3.org/Graphics/SVG/1.1/DTD/svg11.dtd">
<svg version="1.1" xmlns="http://www.w3.org/2000/svg" xmlns:xlink="http://www.w3.org/1999/xlink" x="0px" y="0px" viewBox="0 0 256 256" enable-background="new 0 0 256 256" xml:space="preserve">
<metadata> Svg Vector Icons : http://www.onlinewebfonts.com/icon </metadata>
<g><g><path fill="#000000" d="M78.8,59.6c5.4,0,9.8-4.4,9.8-9.8V10.4c0-5.4-4.4-9.8-9.8-9.8C73.4,0.6,69,5,69,10.4v39.3C69,55.2,73.4,59.6,78.8,59.6z"/><path fill="#000000" d="M128,59.6c5.4,0,9.8-4.4,9.8-9.8V10.4c0-5.4-4.4-9.8-9.8-9.8c-5.4,0-9.8,4.4-9.8,9.8v39.3C118.2,55.2,122.6,59.6,128,59.6z"/><path fill="#000000" d="M98.5,19.4h9.8v19.7h-9.8V19.4z"/><path fill="#000000" d="M147.7,19.4h9.8v19.7h-9.8V19.4z"/><path fill="#000000" d="M216.5,19.4h-19.7v19.7h19.7c5.4,0,9.8,4.4,9.8,9.8v177c0,5.4-4.4,9.8-9.8,9.8h-177c-5.4,0-9.8-4.4-9.8-9.8v-177c0-5.4,4.4-9.8,9.8-9.8h19.7V19.4H39.5C23.2,19.4,10,32.6,10,48.9v177c0,16.3,13.2,29.5,29.5,29.5h177c16.3,0,29.5-13.2,29.5-29.5v-177C246,32.6,232.8,19.4,216.5,19.4z"/><path fill="#000000" d="M177.2,59.6c5.4,0,9.8-4.4,9.8-9.8V10.4c0-5.4-4.4-9.8-9.8-9.8c-5.4,0-9.8,4.4-9.8,9.8v39.3C167.4,55.2,171.8,59.6,177.2,59.6z"/><path fill="#000000" d="M69,108.5h118c5.4,0,9.8-4.4,9.8-9.8s-4.4-9.8-9.8-9.8H69c-5.4,0-9.8,4.4-9.8,9.8S63.6,108.5,69,108.5z"/><path fill="#000000" d="M187,137.4H69c-5.4,0-9.8,4.4-9.8,9.8s4.4,9.8,9.8,9.8h118c5.4,0,9.8-4.4,9.8-9.8S192.5,137.4,187,137.4z"/><path fill="#000000" d="M187,187.8H69c-5.4,0-9.8,4.4-9.8,9.8c0,5.4,4.4,9.8,9.8,9.8h118c5.4,0,9.8-4.4,9.8-9.8C196.8,192.2,192.5,187.8,187,187.8z"/></g></g>
</svg>